<mxfile host="app.diagrams.net" modified="2022-08-05T07:05:32.363Z" agent="5.0 (Windows NT 10.0; Win64; x64) AppleWebKit/537.36 (KHTML, like Gecko) Chrome/103.0.0.0 Safari/537.36" etag="IsFtccaJPMv86ae0IUw_" version="20.2.3" type="github">
  <diagram id="bDnEHNWDBDzwl0PKhSvK" name="第 1 页">
    <mxGraphModel dx="687" dy="382" grid="1" gridSize="10" guides="1" tooltips="1" connect="1" arrows="1" fold="1" page="1" pageScale="1" pageWidth="1169" pageHeight="827" math="0" shadow="0">
      <root>
        <mxCell id="0" />
        <mxCell id="1" parent="0" />
        <mxCell id="JY1h7HHq7SIe5Ilam6JG-2" value="" style="endArrow=classic;html=1;rounded=0;fontColor=#0000FF;" parent="1" edge="1">
          <mxGeometry relative="1" as="geometry">
            <mxPoint x="1569" y="129" as="sourcePoint" />
            <mxPoint x="1629" y="129" as="targetPoint" />
          </mxGeometry>
        </mxCell>
        <mxCell id="JY1h7HHq7SIe5Ilam6JG-3" value="aluB" style="edgeLabel;resizable=0;html=1;align=center;verticalAlign=middle;labelBackgroundColor=#FFFFFF;gradientColor=none;opacity=50;fontColor=#0000FF;" parent="JY1h7HHq7SIe5Ilam6JG-2" connectable="0" vertex="1">
          <mxGeometry relative="1" as="geometry">
            <mxPoint x="-6" as="offset" />
          </mxGeometry>
        </mxCell>
        <mxCell id="JY1h7HHq7SIe5Ilam6JG-4" value="" style="endArrow=classic;html=1;rounded=0;fontColor=#0000FF;" parent="1" edge="1">
          <mxGeometry relative="1" as="geometry">
            <mxPoint x="1569" y="144" as="sourcePoint" />
            <mxPoint x="1629" y="144" as="targetPoint" />
          </mxGeometry>
        </mxCell>
        <mxCell id="JY1h7HHq7SIe5Ilam6JG-5" value="aluOp" style="edgeLabel;resizable=0;html=1;align=center;verticalAlign=middle;labelBackgroundColor=#FFFFFF;gradientColor=none;opacity=50;fontColor=#0000FF;" parent="JY1h7HHq7SIe5Ilam6JG-4" connectable="0" vertex="1">
          <mxGeometry relative="1" as="geometry">
            <mxPoint x="-2" as="offset" />
          </mxGeometry>
        </mxCell>
        <mxCell id="JY1h7HHq7SIe5Ilam6JG-6" value="" style="endArrow=classic;html=1;rounded=0;fontColor=#0000FF;" parent="1" edge="1">
          <mxGeometry relative="1" as="geometry">
            <mxPoint x="1569" y="159" as="sourcePoint" />
            <mxPoint x="1629" y="159" as="targetPoint" />
          </mxGeometry>
        </mxCell>
        <mxCell id="JY1h7HHq7SIe5Ilam6JG-7" value="Branch" style="edgeLabel;resizable=0;html=1;align=center;verticalAlign=middle;labelBackgroundColor=#FFFFFF;gradientColor=none;opacity=50;fontColor=#0000FF;" parent="JY1h7HHq7SIe5Ilam6JG-6" connectable="0" vertex="1">
          <mxGeometry relative="1" as="geometry">
            <mxPoint x="-11" as="offset" />
          </mxGeometry>
        </mxCell>
        <mxCell id="JY1h7HHq7SIe5Ilam6JG-8" value="" style="endArrow=classic;html=1;rounded=0;fontColor=#0000FF;entryX=0.511;entryY=0.144;entryDx=0;entryDy=0;entryPerimeter=0;" parent="1" edge="1" target="0s6Fm4SaoeNFjE5hUFXP-19">
          <mxGeometry relative="1" as="geometry">
            <mxPoint x="1569" y="231" as="sourcePoint" />
            <mxPoint x="1629" y="231" as="targetPoint" />
          </mxGeometry>
        </mxCell>
        <mxCell id="JY1h7HHq7SIe5Ilam6JG-9" value="RegWr" style="edgeLabel;resizable=0;html=1;align=center;verticalAlign=middle;labelBackgroundColor=#FFFFFF;gradientColor=none;opacity=50;fontColor=#0000FF;" parent="JY1h7HHq7SIe5Ilam6JG-8" connectable="0" vertex="1">
          <mxGeometry relative="1" as="geometry">
            <mxPoint x="-5" as="offset" />
          </mxGeometry>
        </mxCell>
        <mxCell id="JY1h7HHq7SIe5Ilam6JG-10" value="" style="endArrow=classic;html=1;rounded=0;fontColor=#0000FF;" parent="1" edge="1">
          <mxGeometry relative="1" as="geometry">
            <mxPoint x="1569" y="187.99999999999977" as="sourcePoint" />
            <mxPoint x="1629" y="187.99999999999977" as="targetPoint" />
          </mxGeometry>
        </mxCell>
        <mxCell id="JY1h7HHq7SIe5Ilam6JG-11" value="immOp" style="edgeLabel;resizable=0;html=1;align=center;verticalAlign=middle;labelBackgroundColor=#FFFFFF;gradientColor=none;opacity=50;fontColor=#0000FF;" parent="JY1h7HHq7SIe5Ilam6JG-10" connectable="0" vertex="1">
          <mxGeometry relative="1" as="geometry">
            <mxPoint x="-7" as="offset" />
          </mxGeometry>
        </mxCell>
        <mxCell id="JY1h7HHq7SIe5Ilam6JG-12" value="" style="endArrow=classic;html=1;rounded=0;fontColor=#0000FF;" parent="1" edge="1">
          <mxGeometry relative="1" as="geometry">
            <mxPoint x="1569" y="114" as="sourcePoint" />
            <mxPoint x="1629" y="114" as="targetPoint" />
          </mxGeometry>
        </mxCell>
        <mxCell id="JY1h7HHq7SIe5Ilam6JG-13" value="aluA" style="edgeLabel;resizable=0;html=1;align=center;verticalAlign=middle;labelBackgroundColor=#FFFFFF;gradientColor=none;opacity=50;fontColor=#0000FF;" parent="JY1h7HHq7SIe5Ilam6JG-12" connectable="0" vertex="1">
          <mxGeometry relative="1" as="geometry">
            <mxPoint x="-5" as="offset" />
          </mxGeometry>
        </mxCell>
        <mxCell id="JY1h7HHq7SIe5Ilam6JG-14" value="" style="endArrow=classic;html=1;rounded=0;" parent="1" edge="1">
          <mxGeometry relative="1" as="geometry">
            <mxPoint x="2008" y="224" as="sourcePoint" />
            <mxPoint x="2068" y="224" as="targetPoint" />
          </mxGeometry>
        </mxCell>
        <mxCell id="JY1h7HHq7SIe5Ilam6JG-15" value="PC" style="edgeLabel;resizable=0;html=1;align=center;verticalAlign=middle;labelBackgroundColor=#FFFFFF;gradientColor=none;opacity=50;" parent="JY1h7HHq7SIe5Ilam6JG-14" connectable="0" vertex="1">
          <mxGeometry relative="1" as="geometry" />
        </mxCell>
        <mxCell id="JY1h7HHq7SIe5Ilam6JG-16" value="" style="endArrow=classic;html=1;rounded=0;" parent="1" edge="1">
          <mxGeometry relative="1" as="geometry">
            <mxPoint x="2008" y="244" as="sourcePoint" />
            <mxPoint x="2068" y="244" as="targetPoint" />
          </mxGeometry>
        </mxCell>
        <mxCell id="JY1h7HHq7SIe5Ilam6JG-17" value="imm" style="edgeLabel;resizable=0;html=1;align=center;verticalAlign=middle;labelBackgroundColor=#FFFFFF;gradientColor=none;opacity=50;" parent="JY1h7HHq7SIe5Ilam6JG-16" connectable="0" vertex="1">
          <mxGeometry relative="1" as="geometry" />
        </mxCell>
        <mxCell id="JY1h7HHq7SIe5Ilam6JG-18" value="" style="endArrow=classic;html=1;rounded=0;" parent="1" edge="1">
          <mxGeometry relative="1" as="geometry">
            <mxPoint x="2008" y="264" as="sourcePoint" />
            <mxPoint x="2068" y="264" as="targetPoint" />
          </mxGeometry>
        </mxCell>
        <mxCell id="JY1h7HHq7SIe5Ilam6JG-19" value="rs1" style="edgeLabel;resizable=0;html=1;align=center;verticalAlign=middle;labelBackgroundColor=#FFFFFF;gradientColor=none;opacity=50;" parent="JY1h7HHq7SIe5Ilam6JG-18" connectable="0" vertex="1">
          <mxGeometry relative="1" as="geometry" />
        </mxCell>
        <mxCell id="JY1h7HHq7SIe5Ilam6JG-20" value="" style="endArrow=classic;html=1;rounded=0;" parent="1" edge="1">
          <mxGeometry relative="1" as="geometry">
            <mxPoint x="2128" y="264" as="sourcePoint" />
            <mxPoint x="2188" y="264" as="targetPoint" />
          </mxGeometry>
        </mxCell>
        <mxCell id="JY1h7HHq7SIe5Ilam6JG-21" value="NextPC" style="edgeLabel;resizable=0;html=1;align=center;verticalAlign=middle;labelBackgroundColor=#FFFFFF;gradientColor=none;opacity=50;" parent="JY1h7HHq7SIe5Ilam6JG-20" connectable="0" vertex="1">
          <mxGeometry relative="1" as="geometry">
            <mxPoint x="-3" as="offset" />
          </mxGeometry>
        </mxCell>
        <mxCell id="JY1h7HHq7SIe5Ilam6JG-22" value="Con" style="rounded=0;whiteSpace=wrap;html=1;fontSize=20;fillColor=none;direction=south;" parent="1" vertex="1">
          <mxGeometry x="1509" y="104" width="60" height="180" as="geometry" />
        </mxCell>
        <mxCell id="JY1h7HHq7SIe5Ilam6JG-23" value="InstFecth" style="whiteSpace=wrap;html=1;aspect=fixed;fontSize=8;fillColor=none;" parent="1" vertex="1">
          <mxGeometry x="1329" y="358" width="80" height="80" as="geometry" />
        </mxCell>
        <mxCell id="JY1h7HHq7SIe5Ilam6JG-24" value="" style="endArrow=classic;html=1;rounded=0;fontSize=8;strokeWidth=2;exitX=1;exitY=0.325;exitDx=0;exitDy=0;exitPerimeter=0;" parent="1" source="JY1h7HHq7SIe5Ilam6JG-23" edge="1">
          <mxGeometry width="50" height="50" relative="1" as="geometry">
            <mxPoint x="1419" y="384" as="sourcePoint" />
            <mxPoint x="1469" y="384" as="targetPoint" />
          </mxGeometry>
        </mxCell>
        <mxCell id="JY1h7HHq7SIe5Ilam6JG-25" value="inst" style="edgeLabel;html=1;align=center;verticalAlign=middle;resizable=0;points=[];fontSize=8;" parent="JY1h7HHq7SIe5Ilam6JG-24" vertex="1" connectable="0">
          <mxGeometry x="-0.3683" y="-1" relative="1" as="geometry">
            <mxPoint as="offset" />
          </mxGeometry>
        </mxCell>
        <mxCell id="JY1h7HHq7SIe5Ilam6JG-26" value="" style="endArrow=classic;html=1;rounded=0;fontSize=8;strokeWidth=2;entryX=0;entryY=0.325;entryDx=0;entryDy=0;entryPerimeter=0;" parent="1" edge="1">
          <mxGeometry width="50" height="50" relative="1" as="geometry">
            <mxPoint x="1409" y="368" as="sourcePoint" />
            <mxPoint x="1459" y="368" as="targetPoint" />
          </mxGeometry>
        </mxCell>
        <mxCell id="JY1h7HHq7SIe5Ilam6JG-27" value="PC" style="edgeLabel;html=1;align=center;verticalAlign=middle;resizable=0;points=[];fontSize=8;" parent="JY1h7HHq7SIe5Ilam6JG-26" vertex="1" connectable="0">
          <mxGeometry x="-0.2389" y="-1" relative="1" as="geometry">
            <mxPoint y="-1" as="offset" />
          </mxGeometry>
        </mxCell>
        <mxCell id="JY1h7HHq7SIe5Ilam6JG-28" value="Regfile" style="rounded=0;whiteSpace=wrap;html=1;fontSize=1;fillColor=none;direction=south;verticalAlign=bottom;" parent="1" vertex="1">
          <mxGeometry x="1529" y="355.5" width="60" height="120" as="geometry" />
        </mxCell>
        <mxCell id="JY1h7HHq7SIe5Ilam6JG-29" value="ImmGen" style="whiteSpace=wrap;html=1;aspect=fixed;fontSize=2;fillColor=none;" parent="1" vertex="1">
          <mxGeometry x="1529" y="491" width="60" height="60" as="geometry" />
        </mxCell>
        <mxCell id="JY1h7HHq7SIe5Ilam6JG-30" value="" style="endArrow=classic;html=1;rounded=0;fontSize=2;strokeWidth=2;exitX=0.238;exitY=0;exitDx=0;exitDy=0;exitPerimeter=0;" parent="1" source="JY1h7HHq7SIe5Ilam6JG-28" edge="1">
          <mxGeometry width="50" height="50" relative="1" as="geometry">
            <mxPoint x="1599" y="384" as="sourcePoint" />
            <mxPoint x="1649" y="384" as="targetPoint" />
          </mxGeometry>
        </mxCell>
        <mxCell id="JY1h7HHq7SIe5Ilam6JG-31" value="rs1Data" style="edgeLabel;html=1;align=center;verticalAlign=middle;resizable=0;points=[];fontSize=2;" parent="JY1h7HHq7SIe5Ilam6JG-30" vertex="1" connectable="0">
          <mxGeometry x="-0.3037" y="1" relative="1" as="geometry">
            <mxPoint x="3" y="2" as="offset" />
          </mxGeometry>
        </mxCell>
        <mxCell id="JY1h7HHq7SIe5Ilam6JG-32" value="" style="endArrow=classic;html=1;rounded=0;fontSize=2;strokeWidth=2;exitX=0.571;exitY=0;exitDx=0;exitDy=0;exitPerimeter=0;" parent="1" source="JY1h7HHq7SIe5Ilam6JG-28" edge="1">
          <mxGeometry width="50" height="50" relative="1" as="geometry">
            <mxPoint x="1599" y="423.9999999999999" as="sourcePoint" />
            <mxPoint x="1649" y="424" as="targetPoint" />
          </mxGeometry>
        </mxCell>
        <mxCell id="JY1h7HHq7SIe5Ilam6JG-33" value="rs2Data" style="edgeLabel;html=1;align=center;verticalAlign=middle;resizable=0;points=[];fontSize=1;" parent="JY1h7HHq7SIe5Ilam6JG-32" vertex="1" connectable="0">
          <mxGeometry x="-0.3648" y="-3" relative="1" as="geometry">
            <mxPoint x="6" y="-1" as="offset" />
          </mxGeometry>
        </mxCell>
        <mxCell id="JY1h7HHq7SIe5Ilam6JG-34" value="" style="endArrow=none;html=1;rounded=0;fontSize=1;strokeWidth=1;" parent="1" edge="1">
          <mxGeometry width="50" height="50" relative="1" as="geometry">
            <mxPoint x="1469" y="544" as="sourcePoint" />
            <mxPoint x="1469" y="384" as="targetPoint" />
          </mxGeometry>
        </mxCell>
        <mxCell id="JY1h7HHq7SIe5Ilam6JG-35" value="" style="endArrow=none;html=1;rounded=0;fontSize=1;strokeWidth=1;entryX=0;entryY=0.383;entryDx=0;entryDy=0;entryPerimeter=0;" parent="1" target="JY1h7HHq7SIe5Ilam6JG-29" edge="1">
          <mxGeometry width="50" height="50" relative="1" as="geometry">
            <mxPoint x="1469" y="514" as="sourcePoint" />
            <mxPoint x="1519" y="514" as="targetPoint" />
          </mxGeometry>
        </mxCell>
        <mxCell id="JY1h7HHq7SIe5Ilam6JG-36" value="inst" style="edgeLabel;html=1;align=center;verticalAlign=middle;resizable=0;points=[];fontSize=8;fontColor=#000000;" parent="JY1h7HHq7SIe5Ilam6JG-35" vertex="1" connectable="0">
          <mxGeometry x="-0.2485" y="1" relative="1" as="geometry">
            <mxPoint as="offset" />
          </mxGeometry>
        </mxCell>
        <mxCell id="JY1h7HHq7SIe5Ilam6JG-37" value="" style="endArrow=none;html=1;rounded=0;fontSize=1;strokeWidth=1;entryX=0.071;entryY=1;entryDx=0;entryDy=0;entryPerimeter=0;" parent="1" target="JY1h7HHq7SIe5Ilam6JG-28" edge="1">
          <mxGeometry width="50" height="50" relative="1" as="geometry">
            <mxPoint x="1469" y="384" as="sourcePoint" />
            <mxPoint x="1529" y="384" as="targetPoint" />
            <Array as="points">
              <mxPoint x="1469" y="364" />
              <mxPoint x="1489" y="364" />
            </Array>
          </mxGeometry>
        </mxCell>
        <mxCell id="JY1h7HHq7SIe5Ilam6JG-38" value="rs1Addr" style="edgeLabel;html=1;align=center;verticalAlign=middle;resizable=0;points=[];fontSize=1;" parent="JY1h7HHq7SIe5Ilam6JG-37" vertex="1" connectable="0">
          <mxGeometry x="0.1762" y="1" relative="1" as="geometry">
            <mxPoint as="offset" />
          </mxGeometry>
        </mxCell>
        <mxCell id="JY1h7HHq7SIe5Ilam6JG-39" value="" style="endArrow=none;html=1;rounded=0;fontSize=1;strokeWidth=1;entryX=0.237;entryY=1;entryDx=0;entryDy=0;entryPerimeter=0;" parent="1" target="JY1h7HHq7SIe5Ilam6JG-28" edge="1">
          <mxGeometry width="50" height="50" relative="1" as="geometry">
            <mxPoint x="1469" y="384" as="sourcePoint" />
            <mxPoint x="1519" y="384" as="targetPoint" />
          </mxGeometry>
        </mxCell>
        <mxCell id="JY1h7HHq7SIe5Ilam6JG-40" value="rs2Addr" style="edgeLabel;html=1;align=center;verticalAlign=middle;resizable=0;points=[];fontSize=1;" parent="JY1h7HHq7SIe5Ilam6JG-39" vertex="1" connectable="0">
          <mxGeometry x="-0.2959" relative="1" as="geometry">
            <mxPoint x="6" as="offset" />
          </mxGeometry>
        </mxCell>
        <mxCell id="JY1h7HHq7SIe5Ilam6JG-41" value="" style="endArrow=none;html=1;rounded=0;fontSize=1;strokeWidth=1;entryX=0.237;entryY=1;entryDx=0;entryDy=0;entryPerimeter=0;" parent="1" edge="1">
          <mxGeometry width="50" height="50" relative="1" as="geometry">
            <mxPoint x="1469" y="404" as="sourcePoint" />
            <mxPoint x="1529" y="403.94000000000005" as="targetPoint" />
          </mxGeometry>
        </mxCell>
        <mxCell id="JY1h7HHq7SIe5Ilam6JG-42" value="rdAddr" style="edgeLabel;html=1;align=center;verticalAlign=middle;resizable=0;points=[];fontSize=1;" parent="JY1h7HHq7SIe5Ilam6JG-41" vertex="1" connectable="0">
          <mxGeometry x="-0.2959" relative="1" as="geometry">
            <mxPoint x="6" as="offset" />
          </mxGeometry>
        </mxCell>
        <mxCell id="JY1h7HHq7SIe5Ilam6JG-45" value="" style="endArrow=classic;html=1;rounded=0;fontSize=2;strokeWidth=2;exitX=0.571;exitY=0;exitDx=0;exitDy=0;exitPerimeter=0;" parent="1" edge="1">
          <mxGeometry width="50" height="50" relative="1" as="geometry">
            <mxPoint x="1589" y="514.02" as="sourcePoint" />
            <mxPoint x="1649" y="514" as="targetPoint" />
          </mxGeometry>
        </mxCell>
        <mxCell id="JY1h7HHq7SIe5Ilam6JG-46" value="imm" style="edgeLabel;html=1;align=center;verticalAlign=middle;resizable=0;points=[];fontSize=1;" parent="JY1h7HHq7SIe5Ilam6JG-45" vertex="1" connectable="0">
          <mxGeometry x="-0.3648" y="-3" relative="1" as="geometry">
            <mxPoint x="2" y="-1" as="offset" />
          </mxGeometry>
        </mxCell>
        <mxCell id="JY1h7HHq7SIe5Ilam6JG-47" value="" style="endArrow=none;html=1;rounded=0;fontSize=1;strokeWidth=1;" parent="1" edge="1">
          <mxGeometry width="50" height="50" relative="1" as="geometry">
            <mxPoint x="1879" y="394" as="sourcePoint" />
            <mxPoint x="1879" y="394" as="targetPoint" />
            <Array as="points">
              <mxPoint x="1879" y="434" />
              <mxPoint x="1809" y="485.5" />
              <mxPoint x="1809" y="433.5" />
              <mxPoint x="1829" y="414" />
              <mxPoint x="1809" y="393.5" />
              <mxPoint x="1809" y="345.5" />
            </Array>
          </mxGeometry>
        </mxCell>
        <mxCell id="JY1h7HHq7SIe5Ilam6JG-48" value="ALU" style="text;html=1;align=center;verticalAlign=middle;resizable=0;points=[];autosize=1;strokeColor=none;fillColor=none;fontSize=1;" parent="1" vertex="1">
          <mxGeometry x="1816" y="400.5" width="50" height="30" as="geometry" />
        </mxCell>
        <mxCell id="JY1h7HHq7SIe5Ilam6JG-49" value="0&lt;br&gt;Mux&lt;br&gt;1" style="ellipse;whiteSpace=wrap;html=1;fontSize=1;fillColor=none;" parent="1" vertex="1">
          <mxGeometry x="1689" y="324" width="30" height="60" as="geometry" />
        </mxCell>
        <mxCell id="JY1h7HHq7SIe5Ilam6JG-50" value="" style="endArrow=none;html=1;rounded=0;fontSize=1;strokeWidth=1;entryX=0.124;entryY=0.833;entryDx=0;entryDy=0;entryPerimeter=0;" parent="1" target="JY1h7HHq7SIe5Ilam6JG-49" edge="1">
          <mxGeometry width="50" height="50" relative="1" as="geometry">
            <mxPoint x="1649" y="384" as="sourcePoint" />
            <mxPoint x="1679" y="374" as="targetPoint" />
            <Array as="points">
              <mxPoint x="1669" y="384" />
              <mxPoint x="1669" y="374" />
            </Array>
          </mxGeometry>
        </mxCell>
        <mxCell id="JY1h7HHq7SIe5Ilam6JG-51" value="" style="endArrow=none;html=1;rounded=0;fontSize=1;strokeWidth=1;entryX=0.022;entryY=0.646;entryDx=0;entryDy=0;entryPerimeter=0;" parent="1" edge="1">
          <mxGeometry width="50" height="50" relative="1" as="geometry">
            <mxPoint x="1414" y="370" as="sourcePoint" />
            <mxPoint x="1689.6599999999999" y="343.3799999999999" as="targetPoint" />
            <Array as="points">
              <mxPoint x="1414" y="343" />
            </Array>
          </mxGeometry>
        </mxCell>
        <mxCell id="JY1h7HHq7SIe5Ilam6JG-52" value="" style="endArrow=none;html=1;rounded=0;fontSize=1;strokeWidth=1;exitX=1;exitY=1;exitDx=0;exitDy=0;exitPerimeter=0;" parent="1" edge="1">
          <mxGeometry width="50" height="50" relative="1" as="geometry">
            <mxPoint x="1719" y="354" as="sourcePoint" />
            <mxPoint x="1809" y="354" as="targetPoint" />
            <Array as="points">
              <mxPoint x="1769" y="354" />
            </Array>
          </mxGeometry>
        </mxCell>
        <mxCell id="JY1h7HHq7SIe5Ilam6JG-53" value="aSrc" style="edgeLabel;html=1;align=center;verticalAlign=middle;resizable=0;points=[];fontSize=1;" parent="JY1h7HHq7SIe5Ilam6JG-52" vertex="1" connectable="0">
          <mxGeometry x="0.3903" y="-1" relative="1" as="geometry">
            <mxPoint as="offset" />
          </mxGeometry>
        </mxCell>
        <mxCell id="JY1h7HHq7SIe5Ilam6JG-54" value="00&lt;br&gt;01&lt;br&gt;Mux4to1&lt;br&gt;10&lt;br&gt;11" style="ellipse;whiteSpace=wrap;html=1;fontSize=1;fillColor=none;" parent="1" vertex="1">
          <mxGeometry x="1679" y="475.5" width="50" height="100" as="geometry" />
        </mxCell>
        <mxCell id="JY1h7HHq7SIe5Ilam6JG-55" value="" style="endArrow=none;html=1;rounded=0;fontSize=1;strokeWidth=1;entryX=0.112;entryY=0.185;entryDx=0;entryDy=0;entryPerimeter=0;" parent="1" target="JY1h7HHq7SIe5Ilam6JG-54" edge="1">
          <mxGeometry width="50" height="50" relative="1" as="geometry">
            <mxPoint x="1649" y="424" as="sourcePoint" />
            <mxPoint x="1719" y="425.5" as="targetPoint" />
            <Array as="points">
              <mxPoint x="1669" y="424" />
              <mxPoint x="1669" y="484" />
              <mxPoint x="1669" y="494" />
            </Array>
          </mxGeometry>
        </mxCell>
        <mxCell id="JY1h7HHq7SIe5Ilam6JG-56" value="" style="endArrow=none;html=1;rounded=0;fontSize=1;strokeWidth=1;" parent="1" edge="1">
          <mxGeometry width="50" height="50" relative="1" as="geometry">
            <mxPoint x="1649" y="514" as="sourcePoint" />
            <mxPoint x="1669" y="514" as="targetPoint" />
            <Array as="points">
              <mxPoint x="1659" y="514" />
              <mxPoint x="1669" y="514" />
              <mxPoint x="1679" y="514" />
            </Array>
          </mxGeometry>
        </mxCell>
        <mxCell id="JY1h7HHq7SIe5Ilam6JG-57" value="" style="endArrow=classic;html=1;rounded=0;fontSize=1;strokeWidth=1;entryX=0.042;entryY=0.677;entryDx=0;entryDy=0;entryPerimeter=0;" parent="1" target="JY1h7HHq7SIe5Ilam6JG-54" edge="1">
          <mxGeometry width="50" height="50" relative="1" as="geometry">
            <mxPoint x="1649" y="544" as="sourcePoint" />
            <mxPoint x="1679" y="544" as="targetPoint" />
          </mxGeometry>
        </mxCell>
        <mxCell id="JY1h7HHq7SIe5Ilam6JG-58" value="4" style="edgeLabel;html=1;align=center;verticalAlign=middle;resizable=0;points=[];fontSize=1;" parent="JY1h7HHq7SIe5Ilam6JG-57" vertex="1" connectable="0">
          <mxGeometry x="-0.0403" relative="1" as="geometry">
            <mxPoint as="offset" />
          </mxGeometry>
        </mxCell>
        <mxCell id="JY1h7HHq7SIe5Ilam6JG-59" value="" style="endArrow=classic;html=1;rounded=0;fontSize=1;strokeWidth=1;exitX=1;exitY=0.485;exitDx=0;exitDy=0;exitPerimeter=0;" parent="1" source="JY1h7HHq7SIe5Ilam6JG-54" edge="1">
          <mxGeometry width="50" height="50" relative="1" as="geometry">
            <mxPoint x="1739" y="524" as="sourcePoint" />
            <mxPoint x="1809" y="474" as="targetPoint" />
            <Array as="points">
              <mxPoint x="1769" y="524" />
              <mxPoint x="1769" y="474" />
            </Array>
          </mxGeometry>
        </mxCell>
        <mxCell id="JY1h7HHq7SIe5Ilam6JG-60" value="bSrc" style="edgeLabel;html=1;align=center;verticalAlign=middle;resizable=0;points=[];fontSize=1;" parent="JY1h7HHq7SIe5Ilam6JG-59" vertex="1" connectable="0">
          <mxGeometry x="0.5875" relative="1" as="geometry">
            <mxPoint as="offset" />
          </mxGeometry>
        </mxCell>
        <mxCell id="JY1h7HHq7SIe5Ilam6JG-61" value="" style="endArrow=classic;html=1;rounded=0;fontSize=1;strokeWidth=2;" parent="1" edge="1">
          <mxGeometry width="50" height="50" relative="1" as="geometry">
            <mxPoint x="1879" y="404" as="sourcePoint" />
            <mxPoint x="1929" y="404" as="targetPoint" />
          </mxGeometry>
        </mxCell>
        <mxCell id="JY1h7HHq7SIe5Ilam6JG-62" value="res" style="edgeLabel;html=1;align=center;verticalAlign=middle;resizable=0;points=[];fontSize=1;" parent="JY1h7HHq7SIe5Ilam6JG-61" vertex="1" connectable="0">
          <mxGeometry x="-0.2344" relative="1" as="geometry">
            <mxPoint x="-2" as="offset" />
          </mxGeometry>
        </mxCell>
        <mxCell id="JY1h7HHq7SIe5Ilam6JG-63" value="" style="endArrow=classic;html=1;rounded=0;fontSize=1;strokeWidth=2;fillColor=#0050ef;strokeColor=#001DBC;" parent="1" edge="1">
          <mxGeometry width="50" height="50" relative="1" as="geometry">
            <mxPoint x="1879" y="418.3699999999999" as="sourcePoint" />
            <mxPoint x="1929" y="418.3699999999999" as="targetPoint" />
          </mxGeometry>
        </mxCell>
        <mxCell id="JY1h7HHq7SIe5Ilam6JG-64" value="less" style="edgeLabel;html=1;align=center;verticalAlign=middle;resizable=0;points=[];fontSize=1;" parent="JY1h7HHq7SIe5Ilam6JG-63" vertex="1" connectable="0">
          <mxGeometry x="-0.3154" relative="1" as="geometry">
            <mxPoint as="offset" />
          </mxGeometry>
        </mxCell>
        <mxCell id="JY1h7HHq7SIe5Ilam6JG-65" value="" style="endArrow=classic;html=1;rounded=0;fontSize=1;strokeWidth=2;fillColor=#0050ef;strokeColor=#001DBC;" parent="1" edge="1">
          <mxGeometry width="50" height="50" relative="1" as="geometry">
            <mxPoint x="1879" y="430.5" as="sourcePoint" />
            <mxPoint x="1929" y="430.5" as="targetPoint" />
          </mxGeometry>
        </mxCell>
        <mxCell id="JY1h7HHq7SIe5Ilam6JG-66" value="zero" style="edgeLabel;html=1;align=center;verticalAlign=middle;resizable=0;points=[];fontSize=1;" parent="JY1h7HHq7SIe5Ilam6JG-65" vertex="1" connectable="0">
          <mxGeometry x="-0.3965" relative="1" as="geometry">
            <mxPoint x="3" as="offset" />
          </mxGeometry>
        </mxCell>
        <mxCell id="JY1h7HHq7SIe5Ilam6JG-67" value="NextPC" style="rounded=0;whiteSpace=wrap;html=1;fontSize=1;fillColor=none;direction=south;" parent="1" vertex="1">
          <mxGeometry x="2068" y="214" width="60" height="120" as="geometry" />
        </mxCell>
        <mxCell id="JY1h7HHq7SIe5Ilam6JG-68" value="DataMem" style="whiteSpace=wrap;html=1;aspect=fixed;fontSize=1;fillColor=none;verticalAlign=bottom;" parent="1" vertex="1">
          <mxGeometry x="2058" y="393.5" width="80" height="80" as="geometry" />
        </mxCell>
        <mxCell id="JY1h7HHq7SIe5Ilam6JG-69" value="" style="endArrow=none;html=1;rounded=0;fontSize=1;strokeWidth=1;entryX=0;entryY=0.125;entryDx=0;entryDy=0;entryPerimeter=0;" parent="1" target="JY1h7HHq7SIe5Ilam6JG-68" edge="1">
          <mxGeometry width="50" height="50" relative="1" as="geometry">
            <mxPoint x="1929" y="404" as="sourcePoint" />
            <mxPoint x="1979" y="384" as="targetPoint" />
          </mxGeometry>
        </mxCell>
        <mxCell id="JY1h7HHq7SIe5Ilam6JG-70" value="addr" style="edgeLabel;html=1;align=center;verticalAlign=middle;resizable=0;points=[];fontSize=1;" parent="JY1h7HHq7SIe5Ilam6JG-69" vertex="1" connectable="0">
          <mxGeometry x="0.6875" y="1" relative="1" as="geometry">
            <mxPoint x="-6" y="1" as="offset" />
          </mxGeometry>
        </mxCell>
        <mxCell id="JY1h7HHq7SIe5Ilam6JG-72" value="" style="endArrow=none;html=1;rounded=0;fontSize=1;strokeWidth=1;entryX=0;entryY=0.875;entryDx=0;entryDy=0;entryPerimeter=0;" parent="1" target="JY1h7HHq7SIe5Ilam6JG-68" edge="1">
          <mxGeometry width="50" height="50" relative="1" as="geometry">
            <mxPoint x="1669" y="424" as="sourcePoint" />
            <mxPoint x="1749" y="414" as="targetPoint" />
            <Array as="points">
              <mxPoint x="1749" y="424" />
              <mxPoint x="1749" y="544" />
              <mxPoint x="1999" y="544" />
              <mxPoint x="1999" y="464" />
            </Array>
          </mxGeometry>
        </mxCell>
        <mxCell id="JY1h7HHq7SIe5Ilam6JG-73" value="dataIn" style="edgeLabel;html=1;align=center;verticalAlign=middle;resizable=0;points=[];fontSize=1;" parent="JY1h7HHq7SIe5Ilam6JG-72" vertex="1" connectable="0">
          <mxGeometry x="0.8785" relative="1" as="geometry">
            <mxPoint as="offset" />
          </mxGeometry>
        </mxCell>
        <mxCell id="JY1h7HHq7SIe5Ilam6JG-74" value="" style="endArrow=classic;html=1;rounded=0;fontSize=1;strokeWidth=2;textOpacity=50;opacity=50;fontColor=#FF0000;strokeColor=#FF0000;" parent="1" edge="1">
          <mxGeometry width="50" height="50" relative="1" as="geometry">
            <mxPoint x="2138" y="405" as="sourcePoint" />
            <mxPoint x="2209" y="405" as="targetPoint" />
          </mxGeometry>
        </mxCell>
        <mxCell id="JY1h7HHq7SIe5Ilam6JG-75" value="dataOut" style="edgeLabel;html=1;align=center;verticalAlign=middle;resizable=0;points=[];fontSize=1;textOpacity=50;fontColor=#FF0000;" parent="JY1h7HHq7SIe5Ilam6JG-74" vertex="1" connectable="0">
          <mxGeometry x="-0.2344" relative="1" as="geometry">
            <mxPoint x="-2" as="offset" />
          </mxGeometry>
        </mxCell>
        <mxCell id="JY1h7HHq7SIe5Ilam6JG-79" value="" style="endArrow=classic;html=1;rounded=0;fontColor=#0000FF;" parent="1" edge="1">
          <mxGeometry relative="1" as="geometry">
            <mxPoint x="1569" y="253" as="sourcePoint" />
            <mxPoint x="1649" y="253" as="targetPoint" />
          </mxGeometry>
        </mxCell>
        <mxCell id="JY1h7HHq7SIe5Ilam6JG-80" value="MemToReg" style="edgeLabel;resizable=0;html=1;align=center;verticalAlign=middle;labelBackgroundColor=#FFFFFF;gradientColor=none;opacity=50;fontColor=#0000FF;" parent="JY1h7HHq7SIe5Ilam6JG-79" connectable="0" vertex="1">
          <mxGeometry relative="1" as="geometry">
            <mxPoint x="-5" as="offset" />
          </mxGeometry>
        </mxCell>
        <mxCell id="JY1h7HHq7SIe5Ilam6JG-81" value="" style="endArrow=classic;html=1;rounded=0;fontColor=#0000FF;" parent="1" edge="1">
          <mxGeometry relative="1" as="geometry">
            <mxPoint x="1569" y="268" as="sourcePoint" />
            <mxPoint x="1649" y="268" as="targetPoint" />
          </mxGeometry>
        </mxCell>
        <mxCell id="JY1h7HHq7SIe5Ilam6JG-82" value="MemWr" style="edgeLabel;resizable=0;html=1;align=center;verticalAlign=middle;labelBackgroundColor=#FFFFFF;gradientColor=none;opacity=50;fontColor=#0000FF;" parent="JY1h7HHq7SIe5Ilam6JG-81" connectable="0" vertex="1">
          <mxGeometry relative="1" as="geometry" />
        </mxCell>
        <mxCell id="JY1h7HHq7SIe5Ilam6JG-83" value="" style="endArrow=classic;html=1;rounded=0;fontColor=#0000FF;" parent="1" edge="1">
          <mxGeometry relative="1" as="geometry">
            <mxPoint x="1569" y="282" as="sourcePoint" />
            <mxPoint x="1649" y="282" as="targetPoint" />
          </mxGeometry>
        </mxCell>
        <mxCell id="JY1h7HHq7SIe5Ilam6JG-84" value="MemOp" style="edgeLabel;resizable=0;html=1;align=center;verticalAlign=middle;labelBackgroundColor=#FFFFFF;gradientColor=none;opacity=50;fontColor=#0000FF;" parent="JY1h7HHq7SIe5Ilam6JG-83" connectable="0" vertex="1">
          <mxGeometry relative="1" as="geometry" />
        </mxCell>
        <mxCell id="JY1h7HHq7SIe5Ilam6JG-85" value="" style="endArrow=none;html=1;rounded=0;fontSize=8;fontColor=#0000FF;strokeWidth=1;entryX=0.5;entryY=1;entryDx=0;entryDy=0;" parent="1" target="JY1h7HHq7SIe5Ilam6JG-22" edge="1">
          <mxGeometry width="50" height="50" relative="1" as="geometry">
            <mxPoint x="1469" y="364" as="sourcePoint" />
            <mxPoint x="1519" y="194" as="targetPoint" />
            <Array as="points">
              <mxPoint x="1469" y="194" />
            </Array>
          </mxGeometry>
        </mxCell>
        <mxCell id="JY1h7HHq7SIe5Ilam6JG-86" value="inst" style="edgeLabel;html=1;align=center;verticalAlign=middle;resizable=0;points=[];fontSize=8;fontColor=#000000;" parent="JY1h7HHq7SIe5Ilam6JG-85" vertex="1" connectable="0">
          <mxGeometry x="0.6697" relative="1" as="geometry">
            <mxPoint as="offset" />
          </mxGeometry>
        </mxCell>
        <mxCell id="JY1h7HHq7SIe5Ilam6JG-87" value="" style="endArrow=classic;html=1;rounded=0;fontSize=8;fontColor=#0000FF;strokeWidth=1;entryX=0;entryY=0.717;entryDx=0;entryDy=0;entryPerimeter=0;" parent="1" target="JY1h7HHq7SIe5Ilam6JG-29" edge="1">
          <mxGeometry width="50" height="50" relative="1" as="geometry">
            <mxPoint x="1479" y="534" as="sourcePoint" />
            <mxPoint x="1519" y="534" as="targetPoint" />
          </mxGeometry>
        </mxCell>
        <mxCell id="JY1h7HHq7SIe5Ilam6JG-88" value="immOp" style="edgeLabel;html=1;align=center;verticalAlign=middle;resizable=0;points=[];fontSize=8;fontColor=#0000FF;" parent="JY1h7HHq7SIe5Ilam6JG-87" vertex="1" connectable="0">
          <mxGeometry x="-0.3649" relative="1" as="geometry">
            <mxPoint as="offset" />
          </mxGeometry>
        </mxCell>
        <mxCell id="JY1h7HHq7SIe5Ilam6JG-89" value="" style="endArrow=classic;html=1;rounded=0;fontColor=#0000FF;entryX=0.5;entryY=0;entryDx=0;entryDy=0;" parent="1" target="JY1h7HHq7SIe5Ilam6JG-49" edge="1">
          <mxGeometry relative="1" as="geometry">
            <mxPoint x="1629" y="304" as="sourcePoint" />
            <mxPoint x="1709" y="304" as="targetPoint" />
            <Array as="points">
              <mxPoint x="1709" y="304" />
            </Array>
          </mxGeometry>
        </mxCell>
        <mxCell id="JY1h7HHq7SIe5Ilam6JG-90" value="aluA" style="edgeLabel;resizable=0;html=1;align=center;verticalAlign=middle;labelBackgroundColor=#FFFFFF;gradientColor=none;opacity=50;fontColor=#0000FF;" parent="JY1h7HHq7SIe5Ilam6JG-89" connectable="0" vertex="1">
          <mxGeometry relative="1" as="geometry" />
        </mxCell>
        <mxCell id="JY1h7HHq7SIe5Ilam6JG-91" value="" style="endArrow=classic;html=1;rounded=0;fontColor=#0000FF;" parent="1" edge="1">
          <mxGeometry relative="1" as="geometry">
            <mxPoint x="1978" y="417.6399999999999" as="sourcePoint" />
            <mxPoint x="2058" y="417.6399999999999" as="targetPoint" />
          </mxGeometry>
        </mxCell>
        <mxCell id="JY1h7HHq7SIe5Ilam6JG-92" value="MemWr" style="edgeLabel;resizable=0;html=1;align=center;verticalAlign=middle;labelBackgroundColor=#FFFFFF;gradientColor=none;opacity=50;fontColor=#0000FF;" parent="JY1h7HHq7SIe5Ilam6JG-91" connectable="0" vertex="1">
          <mxGeometry relative="1" as="geometry" />
        </mxCell>
        <mxCell id="JY1h7HHq7SIe5Ilam6JG-93" value="" style="endArrow=classic;html=1;rounded=0;fontColor=#0000FF;" parent="1" edge="1">
          <mxGeometry relative="1" as="geometry">
            <mxPoint x="1978" y="431.6399999999999" as="sourcePoint" />
            <mxPoint x="2058" y="431.6399999999999" as="targetPoint" />
          </mxGeometry>
        </mxCell>
        <mxCell id="JY1h7HHq7SIe5Ilam6JG-94" value="MemOp" style="edgeLabel;resizable=0;html=1;align=center;verticalAlign=middle;labelBackgroundColor=#FFFFFF;gradientColor=none;opacity=50;fontColor=#0000FF;" parent="JY1h7HHq7SIe5Ilam6JG-93" connectable="0" vertex="1">
          <mxGeometry relative="1" as="geometry" />
        </mxCell>
        <mxCell id="JY1h7HHq7SIe5Ilam6JG-95" value="" style="endArrow=classic;html=1;rounded=0;fontColor=#0000FF;" parent="1" edge="1">
          <mxGeometry relative="1" as="geometry">
            <mxPoint x="1978" y="444" as="sourcePoint" />
            <mxPoint x="2058" y="444" as="targetPoint" />
          </mxGeometry>
        </mxCell>
        <mxCell id="JY1h7HHq7SIe5Ilam6JG-96" value="MemToReg" style="edgeLabel;resizable=0;html=1;align=center;verticalAlign=middle;labelBackgroundColor=#FFFFFF;gradientColor=none;opacity=50;fontColor=#0000FF;" parent="JY1h7HHq7SIe5Ilam6JG-95" connectable="0" vertex="1">
          <mxGeometry relative="1" as="geometry">
            <mxPoint x="-3" as="offset" />
          </mxGeometry>
        </mxCell>
        <mxCell id="JY1h7HHq7SIe5Ilam6JG-97" value="" style="endArrow=classic;html=1;rounded=0;fontSize=1;strokeWidth=1;entryX=0.042;entryY=0.677;entryDx=0;entryDy=0;entryPerimeter=0;" parent="1" edge="1">
          <mxGeometry width="50" height="50" relative="1" as="geometry">
            <mxPoint x="1656.9" y="564.8000000000002" as="sourcePoint" />
            <mxPoint x="1689" y="564" as="targetPoint" />
          </mxGeometry>
        </mxCell>
        <mxCell id="JY1h7HHq7SIe5Ilam6JG-98" value="0" style="edgeLabel;html=1;align=center;verticalAlign=middle;resizable=0;points=[];fontSize=1;" parent="JY1h7HHq7SIe5Ilam6JG-97" vertex="1" connectable="0">
          <mxGeometry x="-0.0403" relative="1" as="geometry">
            <mxPoint as="offset" />
          </mxGeometry>
        </mxCell>
        <mxCell id="JY1h7HHq7SIe5Ilam6JG-99" value="" style="endArrow=classic;html=1;rounded=0;fontSize=1;strokeWidth=1;fillColor=#0050ef;strokeColor=#001DBC;" parent="1" edge="1">
          <mxGeometry width="50" height="50" relative="1" as="geometry">
            <mxPoint x="2018" y="304.3699999999999" as="sourcePoint" />
            <mxPoint x="2068" y="304.3699999999999" as="targetPoint" />
          </mxGeometry>
        </mxCell>
        <mxCell id="JY1h7HHq7SIe5Ilam6JG-100" value="less" style="edgeLabel;html=1;align=center;verticalAlign=middle;resizable=0;points=[];fontSize=1;" parent="JY1h7HHq7SIe5Ilam6JG-99" vertex="1" connectable="0">
          <mxGeometry x="-0.3154" relative="1" as="geometry">
            <mxPoint as="offset" />
          </mxGeometry>
        </mxCell>
        <mxCell id="JY1h7HHq7SIe5Ilam6JG-101" value="" style="endArrow=classic;html=1;rounded=0;fontSize=1;strokeWidth=1;fillColor=#0050ef;strokeColor=#001DBC;" parent="1" edge="1">
          <mxGeometry width="50" height="50" relative="1" as="geometry">
            <mxPoint x="2018" y="316.5" as="sourcePoint" />
            <mxPoint x="2068" y="316.5" as="targetPoint" />
          </mxGeometry>
        </mxCell>
        <mxCell id="JY1h7HHq7SIe5Ilam6JG-102" value="zero" style="edgeLabel;html=1;align=center;verticalAlign=middle;resizable=0;points=[];fontSize=1;" parent="JY1h7HHq7SIe5Ilam6JG-101" vertex="1" connectable="0">
          <mxGeometry x="-0.3965" relative="1" as="geometry">
            <mxPoint x="3" as="offset" />
          </mxGeometry>
        </mxCell>
        <mxCell id="JY1h7HHq7SIe5Ilam6JG-103" value="" style="endArrow=classic;html=1;rounded=0;fontColor=#0000FF;" parent="1" edge="1">
          <mxGeometry relative="1" as="geometry">
            <mxPoint x="2008" y="284" as="sourcePoint" />
            <mxPoint x="2068" y="284" as="targetPoint" />
          </mxGeometry>
        </mxCell>
        <mxCell id="JY1h7HHq7SIe5Ilam6JG-104" value="Branch" style="edgeLabel;resizable=0;html=1;align=center;verticalAlign=middle;labelBackgroundColor=#FFFFFF;gradientColor=none;opacity=50;fontColor=#0000FF;" parent="JY1h7HHq7SIe5Ilam6JG-103" connectable="0" vertex="1">
          <mxGeometry relative="1" as="geometry" />
        </mxCell>
        <mxCell id="JY1h7HHq7SIe5Ilam6JG-105" value="" style="endArrow=none;dashed=1;html=1;dashPattern=1 3;strokeWidth=2;rounded=0;fontSize=8;fontColor=#0000FF;" parent="1" edge="1">
          <mxGeometry width="50" height="50" relative="1" as="geometry">
            <mxPoint x="1449" y="774" as="sourcePoint" />
            <mxPoint x="1449" y="24" as="targetPoint" />
          </mxGeometry>
        </mxCell>
        <mxCell id="JY1h7HHq7SIe5Ilam6JG-106" value="" style="endArrow=none;dashed=1;html=1;dashPattern=1 3;strokeWidth=2;rounded=0;fontSize=8;fontColor=#0000FF;" parent="1" edge="1">
          <mxGeometry width="50" height="50" relative="1" as="geometry">
            <mxPoint x="1659" y="773" as="sourcePoint" />
            <mxPoint x="1659" y="22.999999999999773" as="targetPoint" />
          </mxGeometry>
        </mxCell>
        <mxCell id="JY1h7HHq7SIe5Ilam6JG-107" value="" style="endArrow=none;dashed=1;html=1;dashPattern=1 3;strokeWidth=2;rounded=0;fontSize=8;fontColor=#0000FF;" parent="1" edge="1">
          <mxGeometry width="50" height="50" relative="1" as="geometry">
            <mxPoint x="1935" y="770" as="sourcePoint" />
            <mxPoint x="1935" y="19.999999999999773" as="targetPoint" />
          </mxGeometry>
        </mxCell>
        <mxCell id="JY1h7HHq7SIe5Ilam6JG-108" value="" style="endArrow=none;dashed=1;html=1;dashPattern=1 3;strokeWidth=2;rounded=0;fontSize=8;fontColor=#0000FF;" parent="1" edge="1">
          <mxGeometry width="50" height="50" relative="1" as="geometry">
            <mxPoint x="2199" y="770" as="sourcePoint" />
            <mxPoint x="2199" y="19.999999999999773" as="targetPoint" />
          </mxGeometry>
        </mxCell>
        <mxCell id="JY1h7HHq7SIe5Ilam6JG-109" value="" style="endArrow=classic;html=1;rounded=0;fontColor=#0000FF;entryX=0.5;entryY=0;entryDx=0;entryDy=0;" parent="1" edge="1">
          <mxGeometry relative="1" as="geometry">
            <mxPoint x="1628" y="455" as="sourcePoint" />
            <mxPoint x="1703" y="475" as="targetPoint" />
            <Array as="points">
              <mxPoint x="1708" y="455" />
            </Array>
          </mxGeometry>
        </mxCell>
        <mxCell id="JY1h7HHq7SIe5Ilam6JG-110" value="aluB" style="edgeLabel;resizable=0;html=1;align=center;verticalAlign=middle;labelBackgroundColor=#FFFFFF;gradientColor=none;opacity=50;fontColor=#0000FF;" parent="JY1h7HHq7SIe5Ilam6JG-109" connectable="0" vertex="1">
          <mxGeometry relative="1" as="geometry" />
        </mxCell>
        <mxCell id="JY1h7HHq7SIe5Ilam6JG-111" value="" style="endArrow=classic;html=1;rounded=0;fontColor=#0000FF;" parent="1" edge="1">
          <mxGeometry relative="1" as="geometry">
            <mxPoint x="1785" y="332.0000000000002" as="sourcePoint" />
            <mxPoint x="1849" y="374" as="targetPoint" />
            <Array as="points">
              <mxPoint x="1849" y="334" />
            </Array>
          </mxGeometry>
        </mxCell>
        <mxCell id="JY1h7HHq7SIe5Ilam6JG-112" value="aluOp" style="edgeLabel;resizable=0;html=1;align=center;verticalAlign=middle;labelBackgroundColor=#FFFFFF;gradientColor=none;opacity=50;fontColor=#0000FF;" parent="JY1h7HHq7SIe5Ilam6JG-111" connectable="0" vertex="1">
          <mxGeometry relative="1" as="geometry">
            <mxPoint x="-15" as="offset" />
          </mxGeometry>
        </mxCell>
        <mxCell id="JY1h7HHq7SIe5Ilam6JG-124" value="" style="edgeStyle=orthogonalEdgeStyle;rounded=0;orthogonalLoop=1;jettySize=auto;html=1;" parent="1" source="JY1h7HHq7SIe5Ilam6JG-125" target="JY1h7HHq7SIe5Ilam6JG-126" edge="1">
          <mxGeometry relative="1" as="geometry" />
        </mxCell>
        <mxCell id="JY1h7HHq7SIe5Ilam6JG-125" value="" style="strokeWidth=2;html=1;shape=mxgraph.flowchart.annotation_2;align=left;labelPosition=right;pointerEvents=1;direction=west;strokeColor=#0000FF;opacity=50;" parent="1" vertex="1">
          <mxGeometry x="1639" y="246" width="20" height="40" as="geometry" />
        </mxCell>
        <mxCell id="JY1h7HHq7SIe5Ilam6JG-126" value="MemCtr" style="shape=singleArrow;whiteSpace=wrap;html=1;arrowWidth=0.4;arrowSize=0.4;align=left;strokeColor=#0000FF;strokeWidth=2;opacity=50;" parent="1" vertex="1">
          <mxGeometry x="1699" y="251" width="60" height="30" as="geometry" />
        </mxCell>
        <mxCell id="JY1h7HHq7SIe5Ilam6JG-127" value="" style="edgeStyle=orthogonalEdgeStyle;rounded=0;orthogonalLoop=1;jettySize=auto;html=1;" parent="1" source="JY1h7HHq7SIe5Ilam6JG-128" target="JY1h7HHq7SIe5Ilam6JG-129" edge="1">
          <mxGeometry relative="1" as="geometry" />
        </mxCell>
        <mxCell id="JY1h7HHq7SIe5Ilam6JG-128" value="" style="strokeWidth=2;html=1;shape=mxgraph.flowchart.annotation_2;align=left;labelPosition=right;pointerEvents=1;direction=west;strokeColor=#0000FF;opacity=50;" parent="1" vertex="1">
          <mxGeometry x="1620" y="110" width="20" height="40" as="geometry" />
        </mxCell>
        <mxCell id="JY1h7HHq7SIe5Ilam6JG-129" value="AluCtr" style="shape=singleArrow;whiteSpace=wrap;html=1;arrowWidth=0.4;arrowSize=0.4;align=left;strokeColor=#0000FF;strokeWidth=2;opacity=50;" parent="1" vertex="1">
          <mxGeometry x="1680" y="115" width="60" height="30" as="geometry" />
        </mxCell>
        <mxCell id="JY1h7HHq7SIe5Ilam6JG-152" value="imem" style="rounded=0;whiteSpace=wrap;html=1;direction=south;" parent="1" vertex="1">
          <mxGeometry x="1180" y="338" width="60" height="120" as="geometry" />
        </mxCell>
        <mxCell id="JY1h7HHq7SIe5Ilam6JG-153" value="" style="shape=flexArrow;endArrow=classic;startArrow=classic;html=1;rounded=0;strokeColor=#0000FF;strokeWidth=2;entryX=0;entryY=0.5;entryDx=0;entryDy=0;exitX=0.5;exitY=0;exitDx=0;exitDy=0;" parent="1" source="JY1h7HHq7SIe5Ilam6JG-152" target="JY1h7HHq7SIe5Ilam6JG-23" edge="1">
          <mxGeometry width="100" height="100" relative="1" as="geometry">
            <mxPoint x="1244" y="410" as="sourcePoint" />
            <mxPoint x="1344" y="310" as="targetPoint" />
          </mxGeometry>
        </mxCell>
        <mxCell id="JY1h7HHq7SIe5Ilam6JG-154" value="RomIO" style="edgeLabel;html=1;align=center;verticalAlign=middle;resizable=0;points=[];" parent="JY1h7HHq7SIe5Ilam6JG-153" vertex="1" connectable="0">
          <mxGeometry x="-0.1326" y="3" relative="1" as="geometry">
            <mxPoint y="3" as="offset" />
          </mxGeometry>
        </mxCell>
        <mxCell id="JY1h7HHq7SIe5Ilam6JG-162" value="dmem" style="rounded=0;whiteSpace=wrap;html=1;direction=south;" parent="1" vertex="1">
          <mxGeometry x="2230" y="373.5" width="60" height="120" as="geometry" />
        </mxCell>
        <mxCell id="JY1h7HHq7SIe5Ilam6JG-163" value="" style="shape=flexArrow;endArrow=classic;startArrow=classic;html=1;rounded=0;strokeColor=#0000FF;strokeWidth=2;entryX=0.55;entryY=1.025;entryDx=0;entryDy=0;exitX=1.015;exitY=0.575;exitDx=0;exitDy=0;exitPerimeter=0;entryPerimeter=0;" parent="1" source="JY1h7HHq7SIe5Ilam6JG-68" target="JY1h7HHq7SIe5Ilam6JG-162" edge="1">
          <mxGeometry width="100" height="100" relative="1" as="geometry">
            <mxPoint x="2140" y="434.5000000000001" as="sourcePoint" />
            <mxPoint x="2265" y="434.4999999999999" as="targetPoint" />
          </mxGeometry>
        </mxCell>
        <mxCell id="JY1h7HHq7SIe5Ilam6JG-164" value="RamIO" style="edgeLabel;html=1;align=center;verticalAlign=middle;resizable=0;points=[];" parent="JY1h7HHq7SIe5Ilam6JG-163" vertex="1" connectable="0">
          <mxGeometry x="-0.1326" y="3" relative="1" as="geometry">
            <mxPoint x="4" y="3" as="offset" />
          </mxGeometry>
        </mxCell>
        <mxCell id="QEXMhTwhcCRr9oko1Srp-1" value="" style="strokeWidth=2;html=1;shape=mxgraph.flowchart.annotation_2;align=left;labelPosition=right;pointerEvents=1;" parent="1" vertex="1">
          <mxGeometry x="999" y="30" width="50" height="100" as="geometry" />
        </mxCell>
        <mxCell id="QEXMhTwhcCRr9oko1Srp-2" value="AluCtr" style="text;html=1;align=center;verticalAlign=middle;resizable=0;points=[];autosize=1;strokeColor=none;fillColor=none;" parent="1" vertex="1">
          <mxGeometry x="962" y="50" width="60" height="30" as="geometry" />
        </mxCell>
        <mxCell id="QEXMhTwhcCRr9oko1Srp-3" value="aluA" style="text;html=1;align=center;verticalAlign=middle;resizable=0;points=[];autosize=1;strokeColor=none;fillColor=none;" parent="1" vertex="1">
          <mxGeometry x="1037" y="9" width="50" height="30" as="geometry" />
        </mxCell>
        <mxCell id="QEXMhTwhcCRr9oko1Srp-4" value="aluB" style="text;html=1;align=center;verticalAlign=middle;resizable=0;points=[];autosize=1;strokeColor=none;fillColor=none;" parent="1" vertex="1">
          <mxGeometry x="1036" y="57" width="50" height="30" as="geometry" />
        </mxCell>
        <mxCell id="QEXMhTwhcCRr9oko1Srp-5" value="aluOp" style="text;html=1;align=center;verticalAlign=middle;resizable=0;points=[];autosize=1;strokeColor=none;fillColor=none;" parent="1" vertex="1">
          <mxGeometry x="1036" y="104" width="60" height="30" as="geometry" />
        </mxCell>
        <mxCell id="QEXMhTwhcCRr9oko1Srp-6" value="" style="strokeWidth=2;html=1;shape=mxgraph.flowchart.annotation_2;align=left;labelPosition=right;pointerEvents=1;" parent="1" vertex="1">
          <mxGeometry x="1000" y="150" width="50" height="100" as="geometry" />
        </mxCell>
        <mxCell id="QEXMhTwhcCRr9oko1Srp-7" value="DataSrcIO" style="text;html=1;align=center;verticalAlign=middle;resizable=0;points=[];autosize=1;strokeColor=none;fillColor=none;" parent="1" vertex="1">
          <mxGeometry x="952" y="170" width="80" height="30" as="geometry" />
        </mxCell>
        <mxCell id="QEXMhTwhcCRr9oko1Srp-8" value="rData1" style="text;html=1;align=center;verticalAlign=middle;resizable=0;points=[];autosize=1;strokeColor=none;fillColor=none;" parent="1" vertex="1">
          <mxGeometry x="1039" y="130" width="60" height="30" as="geometry" />
        </mxCell>
        <mxCell id="QEXMhTwhcCRr9oko1Srp-9" value="rData2" style="text;html=1;align=center;verticalAlign=middle;resizable=0;points=[];autosize=1;strokeColor=none;fillColor=none;" parent="1" vertex="1">
          <mxGeometry x="1039" y="180" width="60" height="30" as="geometry" />
        </mxCell>
        <mxCell id="QEXMhTwhcCRr9oko1Srp-10" value="imm" style="text;html=1;align=center;verticalAlign=middle;resizable=0;points=[];autosize=1;strokeColor=none;fillColor=none;" parent="1" vertex="1">
          <mxGeometry x="1025" y="230" width="50" height="30" as="geometry" />
        </mxCell>
        <mxCell id="QEXMhTwhcCRr9oko1Srp-20" style="edgeStyle=orthogonalEdgeStyle;rounded=0;orthogonalLoop=1;jettySize=auto;html=1;exitX=1;exitY=1;exitDx=0;exitDy=0;exitPerimeter=0;entryX=0;entryY=0.5;entryDx=0;entryDy=0;entryPerimeter=0;strokeColor=#000000;strokeWidth=2;" parent="1" source="QEXMhTwhcCRr9oko1Srp-11" target="QEXMhTwhcCRr9oko1Srp-6" edge="1">
          <mxGeometry relative="1" as="geometry" />
        </mxCell>
        <mxCell id="QEXMhTwhcCRr9oko1Srp-22" style="edgeStyle=orthogonalEdgeStyle;rounded=0;orthogonalLoop=1;jettySize=auto;html=1;exitX=1;exitY=0;exitDx=0;exitDy=0;exitPerimeter=0;strokeColor=#000000;strokeWidth=2;entryX=0;entryY=0.5;entryDx=0;entryDy=0;entryPerimeter=0;" parent="1" source="QEXMhTwhcCRr9oko1Srp-11" target="QEXMhTwhcCRr9oko1Srp-1" edge="1">
          <mxGeometry relative="1" as="geometry">
            <mxPoint x="990" y="79.98850574712645" as="targetPoint" />
            <Array as="points">
              <mxPoint x="990" y="80" />
              <mxPoint x="990" y="80" />
            </Array>
          </mxGeometry>
        </mxCell>
        <mxCell id="QEXMhTwhcCRr9oko1Srp-11" value="" style="strokeWidth=2;html=1;shape=mxgraph.flowchart.annotation_2;align=left;labelPosition=right;pointerEvents=1;" parent="1" vertex="1">
          <mxGeometry x="935" y="80" width="45" height="120" as="geometry" />
        </mxCell>
        <mxCell id="QEXMhTwhcCRr9oko1Srp-12" value="AluIO" style="text;html=1;align=center;verticalAlign=middle;resizable=0;points=[];autosize=1;strokeColor=none;fillColor=none;" parent="1" vertex="1">
          <mxGeometry x="901" y="113" width="50" height="30" as="geometry" />
        </mxCell>
        <mxCell id="QEXMhTwhcCRr9oko1Srp-13" value="" style="endArrow=classic;html=1;rounded=0;strokeWidth=2;strokeColor=#0000FF;" parent="1" edge="1">
          <mxGeometry width="50" height="50" relative="1" as="geometry">
            <mxPoint x="1049" y="30" as="sourcePoint" />
            <mxPoint x="1129" y="30" as="targetPoint" />
          </mxGeometry>
        </mxCell>
        <mxCell id="QEXMhTwhcCRr9oko1Srp-14" value="" style="endArrow=classic;html=1;rounded=0;strokeWidth=2;exitX=0.504;exitY=0.496;exitDx=0;exitDy=0;exitPerimeter=0;strokeColor=#0000FF;" parent="1" source="QEXMhTwhcCRr9oko1Srp-1" edge="1">
          <mxGeometry width="50" height="50" relative="1" as="geometry">
            <mxPoint x="1049" y="79.72" as="sourcePoint" />
            <mxPoint x="1129" y="79.72" as="targetPoint" />
          </mxGeometry>
        </mxCell>
        <mxCell id="QEXMhTwhcCRr9oko1Srp-15" value="" style="endArrow=classic;html=1;rounded=0;strokeWidth=2;strokeColor=#0000FF;" parent="1" edge="1">
          <mxGeometry width="50" height="50" relative="1" as="geometry">
            <mxPoint x="1049" y="129.81" as="sourcePoint" />
            <mxPoint x="1129" y="129.81" as="targetPoint" />
          </mxGeometry>
        </mxCell>
        <mxCell id="QEXMhTwhcCRr9oko1Srp-16" value="" style="endArrow=classic;html=1;rounded=0;strokeWidth=2;strokeColor=#000000;" parent="1" edge="1">
          <mxGeometry width="50" height="50" relative="1" as="geometry">
            <mxPoint x="1050" y="249.81" as="sourcePoint" />
            <mxPoint x="1130" y="249.81" as="targetPoint" />
          </mxGeometry>
        </mxCell>
        <mxCell id="QEXMhTwhcCRr9oko1Srp-17" value="" style="endArrow=classic;html=1;rounded=0;strokeWidth=2;exitX=0.504;exitY=0.496;exitDx=0;exitDy=0;exitPerimeter=0;strokeColor=#000000;" parent="1" edge="1">
          <mxGeometry width="50" height="50" relative="1" as="geometry">
            <mxPoint x="1025.2" y="199.60000000000002" as="sourcePoint" />
            <mxPoint x="1130" y="199.72000000000003" as="targetPoint" />
          </mxGeometry>
        </mxCell>
        <mxCell id="QEXMhTwhcCRr9oko1Srp-18" value="" style="endArrow=classic;html=1;rounded=0;strokeWidth=2;strokeColor=#000000;" parent="1" edge="1">
          <mxGeometry width="50" height="50" relative="1" as="geometry">
            <mxPoint x="1050" y="150" as="sourcePoint" />
            <mxPoint x="1130" y="150" as="targetPoint" />
          </mxGeometry>
        </mxCell>
        <mxCell id="QEXMhTwhcCRr9oko1Srp-23" value="" style="strokeWidth=2;html=1;shape=mxgraph.flowchart.annotation_2;align=left;labelPosition=right;pointerEvents=1;" parent="1" vertex="1">
          <mxGeometry x="740" y="47.86" width="50" height="100" as="geometry" />
        </mxCell>
        <mxCell id="QEXMhTwhcCRr9oko1Srp-25" value="aluA" style="text;html=1;align=center;verticalAlign=middle;resizable=0;points=[];autosize=1;strokeColor=none;fillColor=none;" parent="1" vertex="1">
          <mxGeometry x="776" y="26.86" width="50" height="30" as="geometry" />
        </mxCell>
        <mxCell id="QEXMhTwhcCRr9oko1Srp-26" value="aluB" style="text;html=1;align=center;verticalAlign=middle;resizable=0;points=[];autosize=1;strokeColor=none;fillColor=none;" parent="1" vertex="1">
          <mxGeometry x="775" y="74.86" width="50" height="30" as="geometry" />
        </mxCell>
        <mxCell id="QEXMhTwhcCRr9oko1Srp-27" value="aluOp" style="text;html=1;align=center;verticalAlign=middle;resizable=0;points=[];autosize=1;strokeColor=none;fillColor=none;" parent="1" vertex="1">
          <mxGeometry x="775" y="121.86" width="60" height="30" as="geometry" />
        </mxCell>
        <mxCell id="QEXMhTwhcCRr9oko1Srp-28" value="" style="strokeWidth=2;html=1;shape=mxgraph.flowchart.annotation_2;align=left;labelPosition=right;pointerEvents=1;" parent="1" vertex="1">
          <mxGeometry x="739" y="167.86" width="50" height="100" as="geometry" />
        </mxCell>
        <mxCell id="QEXMhTwhcCRr9oko1Srp-30" value="rData1" style="text;html=1;align=center;verticalAlign=middle;resizable=0;points=[];autosize=1;strokeColor=none;fillColor=none;" parent="1" vertex="1">
          <mxGeometry x="778" y="147.86" width="60" height="30" as="geometry" />
        </mxCell>
        <mxCell id="QEXMhTwhcCRr9oko1Srp-31" value="rData2" style="text;html=1;align=center;verticalAlign=middle;resizable=0;points=[];autosize=1;strokeColor=none;fillColor=none;" parent="1" vertex="1">
          <mxGeometry x="778" y="197.86" width="60" height="30" as="geometry" />
        </mxCell>
        <mxCell id="QEXMhTwhcCRr9oko1Srp-32" style="edgeStyle=orthogonalEdgeStyle;rounded=0;orthogonalLoop=1;jettySize=auto;html=1;exitX=1;exitY=1;exitDx=0;exitDy=0;exitPerimeter=0;entryX=0;entryY=0.5;entryDx=0;entryDy=0;entryPerimeter=0;strokeColor=#000000;strokeWidth=2;" parent="1" source="QEXMhTwhcCRr9oko1Srp-34" target="QEXMhTwhcCRr9oko1Srp-28" edge="1">
          <mxGeometry relative="1" as="geometry" />
        </mxCell>
        <mxCell id="QEXMhTwhcCRr9oko1Srp-33" style="edgeStyle=orthogonalEdgeStyle;rounded=0;orthogonalLoop=1;jettySize=auto;html=1;exitX=1;exitY=0;exitDx=0;exitDy=0;exitPerimeter=0;strokeColor=#000000;strokeWidth=2;entryX=0;entryY=0.5;entryDx=0;entryDy=0;entryPerimeter=0;" parent="1" source="QEXMhTwhcCRr9oko1Srp-34" target="QEXMhTwhcCRr9oko1Srp-23" edge="1">
          <mxGeometry relative="1" as="geometry">
            <mxPoint x="729" y="97.84850574712645" as="targetPoint" />
            <Array as="points">
              <mxPoint x="729" y="97.86" />
              <mxPoint x="729" y="97.86" />
            </Array>
          </mxGeometry>
        </mxCell>
        <mxCell id="QEXMhTwhcCRr9oko1Srp-34" value="" style="strokeWidth=2;html=1;shape=mxgraph.flowchart.annotation_2;align=left;labelPosition=right;pointerEvents=1;" parent="1" vertex="1">
          <mxGeometry x="674" y="97.86" width="45" height="120" as="geometry" />
        </mxCell>
        <mxCell id="QEXMhTwhcCRr9oko1Srp-35" value="RamIO" style="text;html=1;align=center;verticalAlign=middle;resizable=0;points=[];autosize=1;strokeColor=none;fillColor=none;" parent="1" vertex="1">
          <mxGeometry x="635" y="130.86" width="60" height="30" as="geometry" />
        </mxCell>
        <mxCell id="QEXMhTwhcCRr9oko1Srp-36" value="" style="endArrow=classic;html=1;rounded=0;strokeWidth=2;strokeColor=#0000FF;" parent="1" edge="1">
          <mxGeometry width="50" height="50" relative="1" as="geometry">
            <mxPoint x="788" y="47.86" as="sourcePoint" />
            <mxPoint x="868" y="47.86" as="targetPoint" />
          </mxGeometry>
        </mxCell>
        <mxCell id="QEXMhTwhcCRr9oko1Srp-37" value="" style="endArrow=classic;html=1;rounded=0;strokeWidth=2;exitX=0.504;exitY=0.496;exitDx=0;exitDy=0;exitPerimeter=0;strokeColor=#0000FF;" parent="1" source="QEXMhTwhcCRr9oko1Srp-23" edge="1">
          <mxGeometry width="50" height="50" relative="1" as="geometry">
            <mxPoint x="788" y="97.58" as="sourcePoint" />
            <mxPoint x="868" y="97.58000000000003" as="targetPoint" />
          </mxGeometry>
        </mxCell>
        <mxCell id="QEXMhTwhcCRr9oko1Srp-38" value="" style="endArrow=classic;html=1;rounded=0;strokeWidth=2;strokeColor=#0000FF;" parent="1" edge="1">
          <mxGeometry width="50" height="50" relative="1" as="geometry">
            <mxPoint x="788" y="147.67000000000002" as="sourcePoint" />
            <mxPoint x="868" y="147.67000000000002" as="targetPoint" />
          </mxGeometry>
        </mxCell>
        <mxCell id="QEXMhTwhcCRr9oko1Srp-39" value="" style="endArrow=classic;html=1;rounded=0;strokeWidth=2;strokeColor=#000000;" parent="1" edge="1">
          <mxGeometry width="50" height="50" relative="1" as="geometry">
            <mxPoint x="789" y="267.66999999999996" as="sourcePoint" />
            <mxPoint x="869" y="267.66999999999996" as="targetPoint" />
          </mxGeometry>
        </mxCell>
        <mxCell id="QEXMhTwhcCRr9oko1Srp-40" value="" style="endArrow=classic;html=1;rounded=0;strokeWidth=2;exitX=0.504;exitY=0.496;exitDx=0;exitDy=0;exitPerimeter=0;strokeColor=#000000;" parent="1" edge="1">
          <mxGeometry width="50" height="50" relative="1" as="geometry">
            <mxPoint x="764.2" y="217.46000000000004" as="sourcePoint" />
            <mxPoint x="869" y="217.58000000000004" as="targetPoint" />
          </mxGeometry>
        </mxCell>
        <mxCell id="QEXMhTwhcCRr9oko1Srp-41" value="" style="endArrow=classic;html=1;rounded=0;strokeWidth=2;strokeColor=#000000;" parent="1" edge="1">
          <mxGeometry width="50" height="50" relative="1" as="geometry">
            <mxPoint x="789" y="167.86" as="sourcePoint" />
            <mxPoint x="869" y="167.86" as="targetPoint" />
          </mxGeometry>
        </mxCell>
        <mxCell id="QEXMhTwhcCRr9oko1Srp-42" value="RomIO" style="text;html=1;align=center;verticalAlign=middle;resizable=0;points=[];autosize=1;strokeColor=none;fillColor=none;" parent="1" vertex="1">
          <mxGeometry x="690" y="65" width="60" height="30" as="geometry" />
        </mxCell>
        <mxCell id="0s6Fm4SaoeNFjE5hUFXP-1" value="" style="endArrow=classic;html=1;rounded=0;" edge="1" parent="1">
          <mxGeometry relative="1" as="geometry">
            <mxPoint x="1269" y="373.5" as="sourcePoint" />
            <mxPoint x="1329" y="373.5" as="targetPoint" />
          </mxGeometry>
        </mxCell>
        <mxCell id="0s6Fm4SaoeNFjE5hUFXP-2" value="NextPC" style="edgeLabel;resizable=0;html=1;align=center;verticalAlign=middle;labelBackgroundColor=#FFFFFF;gradientColor=none;opacity=50;" connectable="0" vertex="1" parent="0s6Fm4SaoeNFjE5hUFXP-1">
          <mxGeometry relative="1" as="geometry">
            <mxPoint x="-3" as="offset" />
          </mxGeometry>
        </mxCell>
        <mxCell id="0s6Fm4SaoeNFjE5hUFXP-3" value="" style="endArrow=classic;html=1;rounded=0;fontColor=#FF0000;" edge="1" parent="1">
          <mxGeometry relative="1" as="geometry">
            <mxPoint x="1469" y="420" as="sourcePoint" />
            <mxPoint x="1529" y="420" as="targetPoint" />
          </mxGeometry>
        </mxCell>
        <mxCell id="0s6Fm4SaoeNFjE5hUFXP-4" value="rdData" style="edgeLabel;resizable=0;html=1;align=center;verticalAlign=middle;labelBackgroundColor=#FFFFFF;gradientColor=none;opacity=50;fontColor=#FF0000;" connectable="0" vertex="1" parent="0s6Fm4SaoeNFjE5hUFXP-3">
          <mxGeometry relative="1" as="geometry">
            <mxPoint x="-3" as="offset" />
          </mxGeometry>
        </mxCell>
        <mxCell id="0s6Fm4SaoeNFjE5hUFXP-5" value="" style="endArrow=classic;html=1;rounded=0;fontColor=#0000FF;" edge="1" parent="1">
          <mxGeometry relative="1" as="geometry">
            <mxPoint x="1469" y="440" as="sourcePoint" />
            <mxPoint x="1529" y="440" as="targetPoint" />
          </mxGeometry>
        </mxCell>
        <mxCell id="0s6Fm4SaoeNFjE5hUFXP-6" value="rdEn" style="edgeLabel;resizable=0;html=1;align=center;verticalAlign=middle;labelBackgroundColor=#FFFFFF;gradientColor=none;opacity=50;fontColor=#0000FF;" connectable="0" vertex="1" parent="0s6Fm4SaoeNFjE5hUFXP-5">
          <mxGeometry relative="1" as="geometry">
            <mxPoint x="-3" as="offset" />
          </mxGeometry>
        </mxCell>
        <mxCell id="0s6Fm4SaoeNFjE5hUFXP-8" value="" style="endArrow=classic;html=1;rounded=0;fontColor=#0000FF;" edge="1" parent="1">
          <mxGeometry relative="1" as="geometry">
            <mxPoint x="1469" y="455" as="sourcePoint" />
            <mxPoint x="1529" y="455" as="targetPoint" />
          </mxGeometry>
        </mxCell>
        <mxCell id="0s6Fm4SaoeNFjE5hUFXP-9" value="rs1En" style="edgeLabel;resizable=0;html=1;align=center;verticalAlign=middle;labelBackgroundColor=#FFFFFF;gradientColor=none;opacity=50;fontColor=#0000FF;" connectable="0" vertex="1" parent="0s6Fm4SaoeNFjE5hUFXP-8">
          <mxGeometry relative="1" as="geometry">
            <mxPoint x="-3" as="offset" />
          </mxGeometry>
        </mxCell>
        <mxCell id="0s6Fm4SaoeNFjE5hUFXP-10" value="" style="endArrow=classic;html=1;rounded=0;fontColor=#0000FF;" edge="1" parent="1">
          <mxGeometry relative="1" as="geometry">
            <mxPoint x="1469" y="470" as="sourcePoint" />
            <mxPoint x="1529" y="470" as="targetPoint" />
          </mxGeometry>
        </mxCell>
        <mxCell id="0s6Fm4SaoeNFjE5hUFXP-11" value="rs2En" style="edgeLabel;resizable=0;html=1;align=center;verticalAlign=middle;labelBackgroundColor=#FFFFFF;gradientColor=none;opacity=50;fontColor=#0000FF;" connectable="0" vertex="1" parent="0s6Fm4SaoeNFjE5hUFXP-10">
          <mxGeometry relative="1" as="geometry">
            <mxPoint x="-3" as="offset" />
          </mxGeometry>
        </mxCell>
        <mxCell id="0s6Fm4SaoeNFjE5hUFXP-12" value="" style="endArrow=classic;html=1;rounded=0;fontColor=#0000FF;" edge="1" parent="1">
          <mxGeometry relative="1" as="geometry">
            <mxPoint x="1569" y="203.86" as="sourcePoint" />
            <mxPoint x="1649" y="203.86" as="targetPoint" />
          </mxGeometry>
        </mxCell>
        <mxCell id="0s6Fm4SaoeNFjE5hUFXP-13" value="rs1Addr" style="edgeLabel;resizable=0;html=1;align=center;verticalAlign=middle;labelBackgroundColor=#FFFFFF;gradientColor=none;opacity=50;fontColor=#0000FF;" connectable="0" vertex="1" parent="0s6Fm4SaoeNFjE5hUFXP-12">
          <mxGeometry relative="1" as="geometry">
            <mxPoint x="-5" as="offset" />
          </mxGeometry>
        </mxCell>
        <mxCell id="0s6Fm4SaoeNFjE5hUFXP-14" value="" style="endArrow=classic;html=1;rounded=0;fontColor=#0000FF;" edge="1" parent="1">
          <mxGeometry relative="1" as="geometry">
            <mxPoint x="1569" y="218.86" as="sourcePoint" />
            <mxPoint x="1649" y="218.86" as="targetPoint" />
          </mxGeometry>
        </mxCell>
        <mxCell id="0s6Fm4SaoeNFjE5hUFXP-15" value="rs2Addr" style="edgeLabel;resizable=0;html=1;align=center;verticalAlign=middle;labelBackgroundColor=#FFFFFF;gradientColor=none;opacity=50;fontColor=#0000FF;" connectable="0" vertex="1" parent="0s6Fm4SaoeNFjE5hUFXP-14">
          <mxGeometry relative="1" as="geometry" />
        </mxCell>
        <mxCell id="0s6Fm4SaoeNFjE5hUFXP-18" value="" style="edgeStyle=orthogonalEdgeStyle;rounded=0;orthogonalLoop=1;jettySize=auto;html=1;" edge="1" source="0s6Fm4SaoeNFjE5hUFXP-19" target="0s6Fm4SaoeNFjE5hUFXP-20" parent="1">
          <mxGeometry relative="1" as="geometry" />
        </mxCell>
        <mxCell id="0s6Fm4SaoeNFjE5hUFXP-19" value="" style="strokeWidth=2;html=1;shape=mxgraph.flowchart.annotation_2;align=left;labelPosition=right;pointerEvents=1;direction=west;strokeColor=#0000FF;opacity=50;" vertex="1" parent="1">
          <mxGeometry x="1639" y="196.86" width="20" height="40" as="geometry" />
        </mxCell>
        <mxCell id="0s6Fm4SaoeNFjE5hUFXP-20" value="RegIO" style="shape=singleArrow;whiteSpace=wrap;html=1;arrowWidth=0.4;arrowSize=0.4;align=left;strokeColor=#0000FF;strokeWidth=2;opacity=50;" vertex="1" parent="1">
          <mxGeometry x="1699" y="201.86" width="60" height="30" as="geometry" />
        </mxCell>
      </root>
    </mxGraphModel>
  </diagram>
</mxfile>
